n<svg width="25" height="25" viewBox="0 0 25 25" fill="none" xmlns="http://www.w3.org/2000/svg">
<path fill-rule="evenodd" clip-rule="evenodd" d="M19.7916 11.4582H13.5416V5.20817C13.5416 4.63213 13.075 4.1665 12.5 4.1665C11.925 4.1665 11.4583 4.63213 11.4583 5.20817V11.4582H5.20829C4.63329 11.4582 4.16663 11.9238 4.16663 12.4998C4.16663 13.0759 4.63329 13.5415 5.20829 13.5415H11.4583V19.7915C11.4583 20.3675 11.925 20.8332 12.5 20.8332C13.075 20.8332 13.5416 20.3675 13.5416 19.7915V13.5415H19.7916C20.3666 13.5415 20.8333 13.0759 20.8333 12.4998C20.8333 11.9238 20.3666 11.4582 19.7916 11.4582" fill="white"/>
</svg>
