<svg width="32" height="32" viewBox="0 0 32 32" fill="none" xmlns="http://www.w3.org/2000/svg">
<path d="M22 26C23.1046 26 24 25.1046 24 24C24 22.8954 23.1046 22 22 22C20.8954 22 20 22.8954 20 24C20 25.1046 20.8954 26 22 26Z" fill="white"/>
<path d="M29.777 23.479C29.1591 21.9049 28.0929 20.5467 26.7105 19.5728C25.3281 18.5988 23.6902 18.052 22 18C20.3098 18.052 18.6719 18.5988 17.2895 19.5728C15.9071 20.5467 14.8409 21.9049 14.223 23.479L14 24L14.223 24.522C14.841 26.0959 15.9073 27.4539 17.2897 28.4277C18.6721 29.4014 20.3099 29.9481 22 30C23.6901 29.9481 25.3279 29.4014 26.7103 28.4277C28.0927 27.4539 29.159 26.0959 29.777 24.522L30 24L29.777 23.479ZM22 28C21.2089 28 20.4355 27.7654 19.7777 27.3259C19.1199 26.8864 18.6072 26.2616 18.3045 25.5307C18.0017 24.7998 17.9225 23.9956 18.0769 23.2196C18.2312 22.4437 18.6122 21.731 19.1716 21.1716C19.731 20.6122 20.4437 20.2312 21.2196 20.0769C21.9956 19.9225 22.7998 20.0017 23.5307 20.3045C24.2616 20.6072 24.8864 21.1199 25.3259 21.7777C25.7654 22.4355 26 23.2089 26 24C25.9987 25.0605 25.5768 26.0771 24.827 26.827C24.0771 27.5768 23.0605 27.9987 22 28Z" fill="white"/>
<path d="M12 20.5712H8V3.42855H16V7.71422C16.0016 8.09274 16.2128 8.45545 16.5875 8.72311C16.9623 8.99077 17.4701 9.14164 18 9.14277H24V11.9999H26V7.71422C26.0035 7.62034 25.9785 7.52704 25.9268 7.44072C25.875 7.35441 25.7976 7.27714 25.7 7.21422L18.7 2.21428C18.612 2.14453 18.5038 2.08925 18.3829 2.05225C18.2621 2.01526 18.1314 1.99743 18 2H8C7.47005 2.00113 6.96227 2.152 6.58753 2.41966C6.2128 2.68732 6.00158 3.05002 6 3.42855V20.5712C6.00158 20.9497 6.2128 21.3124 6.58753 21.5801C6.96227 21.8478 7.47005 21.9986 8 21.9998H12V20.5712ZM18 3.71426L23.6 7.71422H18V3.71426Z" fill="white"/>
</svg>
